<svg width="65" height="64" viewBox="0 0 65 64" fill="none" xmlns="http://www.w3.org/2000/svg">
<g id="Frame">
<path id="Vector" d="M43.915 24.585C44.101 24.7707 44.2485 24.9913 44.3491 25.2341C44.4498 25.4769 44.5016 25.7372 44.5016 26C44.5016 26.2628 44.4498 26.5231 44.3491 26.7659C44.2485 27.0087 44.101 27.2293 43.915 27.415L29.915 41.415C29.7293 41.601 29.5087 41.7485 29.2659 41.8491C29.0231 41.9498 28.7628 42.0016 28.5 42.0016C28.2372 42.0016 27.9769 41.9498 27.7341 41.8491C27.4913 41.7485 27.2708 41.601 27.085 41.415L21.085 35.415C20.7097 35.0397 20.4989 34.5307 20.4989 34C20.4989 33.4693 20.7097 32.9603 21.085 32.585C21.4603 32.2097 21.9693 31.9989 22.5 31.9989C23.0307 31.9989 23.5397 32.2097 23.915 32.585L28.5 37.1725L41.085 24.585C41.2708 24.399 41.4913 24.2515 41.7341 24.1509C41.9769 24.0502 42.2372 23.9984 42.5 23.9984C42.7628 23.9984 43.0231 24.0502 43.2659 24.1509C43.5087 24.2515 43.7293 24.399 43.915 24.585ZM58.5 32C58.5 37.1423 56.9751 42.1691 54.1182 46.4448C51.2613 50.7205 47.2007 54.053 42.4498 56.0209C37.6989 57.9887 32.4712 58.5036 27.4277 57.5004C22.3842 56.4972 17.7514 54.0209 14.1152 50.3848C10.4791 46.7486 8.00281 42.1159 6.99959 37.0723C5.99638 32.0288 6.51127 26.8011 8.47914 22.0502C10.447 17.2994 13.7795 13.2387 18.0552 10.3818C22.3309 7.52487 27.3577 6 32.5 6C39.3934 6.00728 46.0024 8.74889 50.8767 13.6233C55.7511 18.4976 58.4927 25.1066 58.5 32ZM54.5 32C54.5 27.6488 53.2097 23.3953 50.7923 19.7775C48.375 16.1596 44.939 13.3398 40.919 11.6747C36.8991 10.0095 32.4756 9.57385 28.208 10.4227C23.9404 11.2716 20.0204 13.3669 16.9437 16.4437C13.8669 19.5204 11.7716 23.4404 10.9227 27.708C10.0739 31.9756 10.5095 36.3991 12.1747 40.419C13.8398 44.439 16.6596 47.8749 20.2775 50.2923C23.8953 52.7097 28.1488 54 32.5 54C38.3327 53.9934 43.9247 51.6734 48.0491 47.549C52.1734 43.4247 54.4934 37.8327 54.5 32Z" fill="#5538EE"/>
</g>
</svg>
