<svg width="90" height="90" viewBox="0 0 90 90" fill="none" xmlns="http://www.w3.org/2000/svg">
<g id="user">
<rect x="0.0610352" y="0.161133" width="89" height="89" rx="44.5" fill="#F2F4F5"/>
<g id="Vector">
<path d="M63.9765 74.3275C66.2366 74.3275 68.3209 73.1084 69.4289 71.1386V71.1386C70.6005 69.0557 70.4721 66.484 68.7373 64.8404C65.0045 61.3039 57.1613 55.7858 44.5611 55.7858C31.9837 55.7858 24.5253 61.284 21.0284 64.8212C19.3795 66.4891 19.3172 69.0049 20.467 71.049V71.049" stroke="#131214" stroke-width="4.96899" stroke-linecap="round" stroke-linejoin="round"/>
<path d="M44.9732 41.3645C52.2551 41.3645 58.1583 35.4613 58.1583 28.1793C58.1583 20.8973 52.2551 14.9941 44.9732 14.9941C37.6912 14.9941 31.788 20.8973 31.788 28.1793C31.788 35.4613 37.6912 41.3645 44.9732 41.3645Z" stroke="#131214" stroke-width="4.96899" stroke-linecap="round" stroke-linejoin="round"/>
</g>
</g>
</svg>
